<mxfile host="app.diagrams.net" modified="2022-05-18T20:07:28.989Z" agent="5.0 (Macintosh; Intel Mac OS X 10_15_7) AppleWebKit/537.36 (KHTML, like Gecko) Chrome/101.0.0.0 Safari/537.36" etag="WCLF52OXwZaUZP-j0Zts" version="18.0.6" type="github">
  <diagram id="MjEZ5cSruUA6gTRAwDY5" name="Page-1">
    <mxGraphModel dx="1598" dy="936" grid="0" gridSize="10" guides="1" tooltips="1" connect="1" arrows="1" fold="1" page="0" pageScale="1" pageWidth="827" pageHeight="1169" math="0" shadow="0">
      <root>
        <mxCell id="0" />
        <mxCell id="1" parent="0" />
        <mxCell id="noDH1uBnHRJtmfF7jS5f-55" value="" style="rounded=0;whiteSpace=wrap;html=1;strokeWidth=1;dashed=1;" vertex="1" parent="1">
          <mxGeometry x="110" y="128" width="813" height="786" as="geometry" />
        </mxCell>
        <mxCell id="noDH1uBnHRJtmfF7jS5f-1" value="" style="rounded=1;whiteSpace=wrap;html=1;dashed=1;strokeColor=#FF8000;strokeWidth=2;" vertex="1" parent="1">
          <mxGeometry x="223" y="230" width="680" height="490" as="geometry" />
        </mxCell>
        <mxCell id="noDH1uBnHRJtmfF7jS5f-2" value="" style="rounded=0;whiteSpace=wrap;html=1;" vertex="1" parent="1">
          <mxGeometry x="243" y="148" width="640" height="70" as="geometry" />
        </mxCell>
        <mxCell id="noDH1uBnHRJtmfF7jS5f-3" value="&lt;font style=&quot;font-size: 20px;&quot;&gt;业务应用&lt;/font&gt;" style="text;html=1;strokeColor=none;fillColor=none;align=center;verticalAlign=middle;whiteSpace=wrap;rounded=0;fontSize=20;fontStyle=1" vertex="1" parent="1">
          <mxGeometry x="102.5" y="170.5" width="115" height="25" as="geometry" />
        </mxCell>
        <mxCell id="noDH1uBnHRJtmfF7jS5f-4" value="" style="rounded=0;whiteSpace=wrap;html=1;" vertex="1" parent="1">
          <mxGeometry x="243" y="260" width="640" height="69" as="geometry" />
        </mxCell>
        <mxCell id="noDH1uBnHRJtmfF7jS5f-5" value="&lt;font style=&quot;font-size: 16px;&quot;&gt;接口层&lt;/font&gt;" style="text;html=1;strokeColor=none;fillColor=none;align=center;verticalAlign=middle;whiteSpace=wrap;rounded=0;fontSize=16;fontStyle=1" vertex="1" parent="1">
          <mxGeometry x="243" y="279.25" width="110" height="27.5" as="geometry" />
        </mxCell>
        <mxCell id="noDH1uBnHRJtmfF7jS5f-6" value="" style="rounded=0;whiteSpace=wrap;html=1;" vertex="1" parent="1">
          <mxGeometry x="243" y="620" width="640" height="72" as="geometry" />
        </mxCell>
        <mxCell id="noDH1uBnHRJtmfF7jS5f-7" value="&lt;font style=&quot;font-size: 16px;&quot;&gt;引擎层&lt;/font&gt;" style="text;html=1;strokeColor=none;fillColor=none;align=center;verticalAlign=middle;whiteSpace=wrap;rounded=0;fontSize=16;fontStyle=1" vertex="1" parent="1">
          <mxGeometry x="243" y="642.75" width="110" height="27.5" as="geometry" />
        </mxCell>
        <mxCell id="noDH1uBnHRJtmfF7jS5f-8" value="" style="rounded=0;whiteSpace=wrap;html=1;" vertex="1" parent="1">
          <mxGeometry x="243" y="737" width="640" height="70" as="geometry" />
        </mxCell>
        <mxCell id="noDH1uBnHRJtmfF7jS5f-9" value="&lt;span style=&quot;font-size: 20px;&quot;&gt;数据资产&lt;/span&gt;" style="text;html=1;strokeColor=none;fillColor=none;align=center;verticalAlign=middle;whiteSpace=wrap;rounded=0;fontSize=20;fontStyle=1" vertex="1" parent="1">
          <mxGeometry x="105" y="754.5" width="110" height="27.5" as="geometry" />
        </mxCell>
        <mxCell id="noDH1uBnHRJtmfF7jS5f-10" value="&lt;span&gt;&lt;font style=&quot;font-size: 14px;&quot;&gt;Data Warehouse&lt;/font&gt;&lt;/span&gt;" style="rounded=0;whiteSpace=wrap;html=1;" vertex="1" parent="1">
          <mxGeometry x="243" y="827" width="640" height="70" as="geometry" />
        </mxCell>
        <mxCell id="noDH1uBnHRJtmfF7jS5f-11" value="&lt;span style=&quot;font-size: 20px;&quot;&gt;数据开发&lt;/span&gt;" style="text;html=1;strokeColor=none;fillColor=none;align=center;verticalAlign=middle;whiteSpace=wrap;rounded=0;fontSize=20;fontStyle=1" vertex="1" parent="1">
          <mxGeometry x="105" y="848.25" width="110" height="27.5" as="geometry" />
        </mxCell>
        <mxCell id="noDH1uBnHRJtmfF7jS5f-12" value="&lt;font style=&quot;font-size: 14px&quot;&gt;在线业务&lt;/font&gt;" style="rounded=1;whiteSpace=wrap;html=1;" vertex="1" parent="1">
          <mxGeometry x="293" y="165.5" width="100" height="35" as="geometry" />
        </mxCell>
        <mxCell id="noDH1uBnHRJtmfF7jS5f-13" value="&lt;font style=&quot;font-size: 14px&quot;&gt;弱在线业务&lt;/font&gt;" style="rounded=1;whiteSpace=wrap;html=1;" vertex="1" parent="1">
          <mxGeometry x="513" y="165.5" width="100" height="35" as="geometry" />
        </mxCell>
        <mxCell id="noDH1uBnHRJtmfF7jS5f-14" value="&lt;font style=&quot;font-size: 14px&quot;&gt;离线业务&lt;/font&gt;" style="rounded=1;whiteSpace=wrap;html=1;" vertex="1" parent="1">
          <mxGeometry x="723" y="165.5" width="100" height="35" as="geometry" />
        </mxCell>
        <mxCell id="noDH1uBnHRJtmfF7jS5f-15" value="&lt;span style=&quot;font-size: 14px&quot;&gt;通用查询&lt;/span&gt;" style="rounded=1;whiteSpace=wrap;html=1;" vertex="1" parent="1">
          <mxGeometry x="390" y="277.25" width="167" height="35" as="geometry" />
        </mxCell>
        <mxCell id="noDH1uBnHRJtmfF7jS5f-17" value="&lt;span style=&quot;font-size: 14px&quot;&gt;OneId&lt;/span&gt;" style="rounded=1;whiteSpace=wrap;html=1;" vertex="1" parent="1">
          <mxGeometry x="644" y="277.25" width="153" height="35" as="geometry" />
        </mxCell>
        <mxCell id="noDH1uBnHRJtmfF7jS5f-18" value="&lt;span style=&quot;font-size: 14px&quot;&gt;Redis&lt;/span&gt;" style="rounded=1;whiteSpace=wrap;html=1;" vertex="1" parent="1">
          <mxGeometry x="358" y="639" width="100" height="35" as="geometry" />
        </mxCell>
        <mxCell id="noDH1uBnHRJtmfF7jS5f-19" value="&lt;span style=&quot;font-size: 14px&quot;&gt;Hbase&lt;/span&gt;" style="rounded=1;whiteSpace=wrap;html=1;" vertex="1" parent="1">
          <mxGeometry x="481" y="639" width="100" height="35" as="geometry" />
        </mxCell>
        <mxCell id="noDH1uBnHRJtmfF7jS5f-20" value="&lt;span style=&quot;font-size: 14px&quot;&gt;Kiwi&lt;/span&gt;" style="rounded=1;whiteSpace=wrap;html=1;fillColor=#ffe6cc;strokeColor=#d79b00;" vertex="1" parent="1">
          <mxGeometry x="607" y="639" width="100" height="35" as="geometry" />
        </mxCell>
        <mxCell id="noDH1uBnHRJtmfF7jS5f-22" value="&lt;span style=&quot;font-size: 14px&quot;&gt;画像标签&lt;/span&gt;" style="rounded=1;whiteSpace=wrap;html=1;" vertex="1" parent="1">
          <mxGeometry x="264" y="754.5" width="100" height="35" as="geometry" />
        </mxCell>
        <mxCell id="noDH1uBnHRJtmfF7jS5f-23" value="&lt;font style=&quot;font-size: 14px&quot;&gt;用户分群&lt;/font&gt;" style="rounded=1;whiteSpace=wrap;html=1;" vertex="1" parent="1">
          <mxGeometry x="386" y="754.5" width="100" height="35" as="geometry" />
        </mxCell>
        <mxCell id="noDH1uBnHRJtmfF7jS5f-24" value="&lt;font style=&quot;font-size: 14px&quot;&gt;创作数据&lt;/font&gt;" style="rounded=1;whiteSpace=wrap;html=1;" vertex="1" parent="1">
          <mxGeometry x="510" y="754.5" width="100" height="35" as="geometry" />
        </mxCell>
        <mxCell id="noDH1uBnHRJtmfF7jS5f-25" value="&lt;font style=&quot;font-size: 14px&quot;&gt;消费数据&lt;/font&gt;" style="rounded=1;whiteSpace=wrap;html=1;" vertex="1" parent="1">
          <mxGeometry x="634" y="754.5" width="100" height="35" as="geometry" />
        </mxCell>
        <mxCell id="noDH1uBnHRJtmfF7jS5f-26" value="&lt;font style=&quot;font-size: 14px&quot;&gt;社交数据&lt;/font&gt;" style="rounded=1;whiteSpace=wrap;html=1;" vertex="1" parent="1">
          <mxGeometry x="761" y="754.5" width="100" height="35" as="geometry" />
        </mxCell>
        <mxCell id="noDH1uBnHRJtmfF7jS5f-27" value="&lt;span style=&quot;font-size: 14px&quot;&gt;...&lt;/span&gt;" style="rounded=1;whiteSpace=wrap;html=1;" vertex="1" parent="1">
          <mxGeometry x="733" y="639" width="100" height="35" as="geometry" />
        </mxCell>
        <mxCell id="noDH1uBnHRJtmfF7jS5f-35" value="&lt;font style=&quot;font-size: 20px;&quot;&gt;KV API&lt;/font&gt;" style="text;html=1;strokeColor=none;fillColor=none;align=center;verticalAlign=middle;whiteSpace=wrap;rounded=0;fontSize=20;fontStyle=1" vertex="1" parent="1">
          <mxGeometry x="107.62" y="462.5" width="88.75" height="25" as="geometry" />
        </mxCell>
        <mxCell id="noDH1uBnHRJtmfF7jS5f-37" value="" style="rounded=0;whiteSpace=wrap;html=1;" vertex="1" parent="1">
          <mxGeometry x="243" y="340" width="640" height="70" as="geometry" />
        </mxCell>
        <mxCell id="noDH1uBnHRJtmfF7jS5f-38" value="&lt;font style=&quot;font-size: 16px;&quot;&gt;服务层&lt;/font&gt;" style="text;html=1;strokeColor=none;fillColor=none;align=center;verticalAlign=middle;whiteSpace=wrap;rounded=0;fontSize=16;fontStyle=1" vertex="1" parent="1">
          <mxGeometry x="243" y="360.5" width="110" height="27.5" as="geometry" />
        </mxCell>
        <mxCell id="noDH1uBnHRJtmfF7jS5f-39" value="&lt;span style=&quot;font-size: 14px;&quot;&gt;代理模式&lt;/span&gt;" style="rounded=1;whiteSpace=wrap;html=1;" vertex="1" parent="1">
          <mxGeometry x="390" y="358.5" width="167" height="35" as="geometry" />
        </mxCell>
        <mxCell id="noDH1uBnHRJtmfF7jS5f-40" value="&lt;span style=&quot;font-size: 14px&quot;&gt;直连模式&lt;/span&gt;" style="rounded=1;whiteSpace=wrap;html=1;fillColor=#ffe6cc;strokeColor=#d79b00;" vertex="1" parent="1">
          <mxGeometry x="644" y="358.5" width="153" height="35" as="geometry" />
        </mxCell>
        <mxCell id="noDH1uBnHRJtmfF7jS5f-41" value="" style="rounded=0;whiteSpace=wrap;html=1;" vertex="1" parent="1">
          <mxGeometry x="243" y="421" width="640" height="179" as="geometry" />
        </mxCell>
        <mxCell id="noDH1uBnHRJtmfF7jS5f-42" value="&lt;font style=&quot;font-size: 16px;&quot;&gt;保障层&lt;/font&gt;" style="text;html=1;strokeColor=none;fillColor=none;align=center;verticalAlign=middle;whiteSpace=wrap;rounded=0;fontSize=16;fontStyle=1" vertex="1" parent="1">
          <mxGeometry x="243" y="496.75" width="107" height="27.5" as="geometry" />
        </mxCell>
        <mxCell id="noDH1uBnHRJtmfF7jS5f-43" value="&lt;span style=&quot;font-size: 14px&quot;&gt;客户端限流&lt;/span&gt;" style="rounded=1;whiteSpace=wrap;html=1;" vertex="1" parent="1">
          <mxGeometry x="360" y="444" width="100" height="35" as="geometry" />
        </mxCell>
        <mxCell id="noDH1uBnHRJtmfF7jS5f-44" value="&lt;span style=&quot;font-size: 14px;&quot;&gt;服务端线程池背压&lt;/span&gt;" style="rounded=1;whiteSpace=wrap;html=1;" vertex="1" parent="1">
          <mxGeometry x="480" y="444" width="126" height="35" as="geometry" />
        </mxCell>
        <mxCell id="noDH1uBnHRJtmfF7jS5f-45" value="&lt;span style=&quot;font-size: 14px&quot;&gt;服务隔离&lt;/span&gt;" style="rounded=1;whiteSpace=wrap;html=1;" vertex="1" parent="1">
          <mxGeometry x="627" y="444" width="100" height="35" as="geometry" />
        </mxCell>
        <mxCell id="noDH1uBnHRJtmfF7jS5f-46" value="&lt;span style=&quot;font-size: 14px;&quot;&gt;存储隔离&lt;/span&gt;" style="rounded=1;whiteSpace=wrap;html=1;" vertex="1" parent="1">
          <mxGeometry x="747" y="444" width="100" height="35" as="geometry" />
        </mxCell>
        <mxCell id="noDH1uBnHRJtmfF7jS5f-47" value="&lt;span style=&quot;font-size: 14px&quot;&gt;服务分级监控&lt;/span&gt;" style="rounded=1;whiteSpace=wrap;html=1;" vertex="1" parent="1">
          <mxGeometry x="359" y="493.25" width="100" height="35" as="geometry" />
        </mxCell>
        <mxCell id="noDH1uBnHRJtmfF7jS5f-48" value="&lt;span style=&quot;font-size: 14px;&quot;&gt;存储动态迁移&lt;/span&gt;" style="rounded=1;whiteSpace=wrap;html=1;fillColor=#ffe6cc;strokeColor=#d79b00;" vertex="1" parent="1">
          <mxGeometry x="479" y="493.25" width="126" height="35" as="geometry" />
        </mxCell>
        <mxCell id="noDH1uBnHRJtmfF7jS5f-49" value="&lt;span style=&quot;font-size: 14px&quot;&gt;流量管控&lt;/span&gt;" style="rounded=1;whiteSpace=wrap;html=1;fillColor=#ffe6cc;strokeColor=#d79b00;" vertex="1" parent="1">
          <mxGeometry x="626" y="493.25" width="100" height="35" as="geometry" />
        </mxCell>
        <mxCell id="noDH1uBnHRJtmfF7jS5f-50" value="&lt;span style=&quot;font-size: 14px;&quot;&gt;服务动态迁移&lt;/span&gt;" style="rounded=1;whiteSpace=wrap;html=1;fillColor=#ffe6cc;strokeColor=#d79b00;" vertex="1" parent="1">
          <mxGeometry x="746" y="493.25" width="100" height="35" as="geometry" />
        </mxCell>
        <mxCell id="noDH1uBnHRJtmfF7jS5f-51" value="&lt;span style=&quot;font-size: 14px&quot;&gt;流量降采样&lt;/span&gt;" style="rounded=1;whiteSpace=wrap;html=1;fillColor=#ffe6cc;strokeColor=#d79b00;" vertex="1" parent="1">
          <mxGeometry x="360" y="544" width="100" height="35" as="geometry" />
        </mxCell>
        <mxCell id="noDH1uBnHRJtmfF7jS5f-52" value="&lt;span style=&quot;font-size: 14px;&quot;&gt;资源Warmup&lt;/span&gt;" style="rounded=1;whiteSpace=wrap;html=1;fillColor=#ffe6cc;strokeColor=#d79b00;" vertex="1" parent="1">
          <mxGeometry x="480" y="544" width="126" height="35" as="geometry" />
        </mxCell>
        <mxCell id="noDH1uBnHRJtmfF7jS5f-53" value="&lt;span style=&quot;font-size: 14px&quot;&gt;动态线程池&lt;/span&gt;" style="rounded=1;whiteSpace=wrap;html=1;fillColor=#ffe6cc;strokeColor=#d79b00;" vertex="1" parent="1">
          <mxGeometry x="627" y="544" width="100" height="35" as="geometry" />
        </mxCell>
        <mxCell id="noDH1uBnHRJtmfF7jS5f-56" value="&lt;span style=&quot;font-size: 14px&quot;&gt;资源分级优化&lt;/span&gt;" style="rounded=1;whiteSpace=wrap;html=1;fillColor=#ffe6cc;strokeColor=#d79b00;" vertex="1" parent="1">
          <mxGeometry x="747" y="544" width="100" height="35" as="geometry" />
        </mxCell>
        <mxCell id="noDH1uBnHRJtmfF7jS5f-57" value="" style="rounded=0;whiteSpace=wrap;html=1;fontSize=16;strokeWidth=1;" vertex="1" parent="1">
          <mxGeometry x="239" y="1200" width="387" height="514" as="geometry" />
        </mxCell>
        <mxCell id="noDH1uBnHRJtmfF7jS5f-82" style="edgeStyle=orthogonalEdgeStyle;curved=1;rounded=0;orthogonalLoop=1;jettySize=auto;html=1;exitX=1;exitY=0.5;exitDx=0;exitDy=0;fontSize=16;startArrow=classic;startFill=1;" edge="1" parent="1" source="noDH1uBnHRJtmfF7jS5f-58" target="noDH1uBnHRJtmfF7jS5f-79">
          <mxGeometry relative="1" as="geometry" />
        </mxCell>
        <mxCell id="noDH1uBnHRJtmfF7jS5f-83" style="edgeStyle=orthogonalEdgeStyle;curved=1;rounded=0;orthogonalLoop=1;jettySize=auto;html=1;exitX=0.5;exitY=1;exitDx=0;exitDy=0;entryX=0.5;entryY=0;entryDx=0;entryDy=0;fontSize=16;startArrow=classic;startFill=1;" edge="1" parent="1" source="noDH1uBnHRJtmfF7jS5f-58" target="noDH1uBnHRJtmfF7jS5f-59">
          <mxGeometry relative="1" as="geometry" />
        </mxCell>
        <mxCell id="noDH1uBnHRJtmfF7jS5f-58" value="&lt;font style=&quot;font-size: 18px;&quot;&gt;Hadoop Client&lt;/font&gt;" style="rounded=0;whiteSpace=wrap;html=1;fontSize=16;strokeWidth=1;" vertex="1" parent="1">
          <mxGeometry x="283" y="1090" width="295" height="60" as="geometry" />
        </mxCell>
        <mxCell id="noDH1uBnHRJtmfF7jS5f-59" value="&lt;font style=&quot;font-size: 18px;&quot;&gt;NameNode Service&lt;/font&gt;" style="rounded=0;whiteSpace=wrap;html=1;fontSize=16;strokeWidth=1;" vertex="1" parent="1">
          <mxGeometry x="263" y="1249" width="334" height="48" as="geometry" />
        </mxCell>
        <mxCell id="noDH1uBnHRJtmfF7jS5f-80" style="edgeStyle=orthogonalEdgeStyle;rounded=0;orthogonalLoop=1;jettySize=auto;html=1;exitX=1;exitY=0.25;exitDx=0;exitDy=0;entryX=-0.02;entryY=0.215;entryDx=0;entryDy=0;entryPerimeter=0;fontSize=16;curved=1;" edge="1" parent="1" source="noDH1uBnHRJtmfF7jS5f-60" target="noDH1uBnHRJtmfF7jS5f-75">
          <mxGeometry relative="1" as="geometry" />
        </mxCell>
        <mxCell id="noDH1uBnHRJtmfF7jS5f-88" style="edgeStyle=orthogonalEdgeStyle;curved=1;rounded=0;orthogonalLoop=1;jettySize=auto;html=1;exitX=0.5;exitY=0;exitDx=0;exitDy=0;fontSize=18;startArrow=classic;startFill=1;" edge="1" parent="1" source="noDH1uBnHRJtmfF7jS5f-60" target="noDH1uBnHRJtmfF7jS5f-59">
          <mxGeometry relative="1" as="geometry" />
        </mxCell>
        <mxCell id="noDH1uBnHRJtmfF7jS5f-60" value="" style="rounded=0;whiteSpace=wrap;html=1;fontSize=16;strokeWidth=1;fillColor=#ffe6cc;strokeColor=#d79b00;" vertex="1" parent="1">
          <mxGeometry x="263" y="1356" width="335" height="346" as="geometry" />
        </mxCell>
        <mxCell id="noDH1uBnHRJtmfF7jS5f-61" value="&lt;font style=&quot;font-size: 16px;&quot;&gt;用户接口层&lt;/font&gt;" style="rounded=0;whiteSpace=wrap;html=1;fontSize=16;strokeWidth=1;" vertex="1" parent="1">
          <mxGeometry x="286" y="1395" width="295" height="44" as="geometry" />
        </mxCell>
        <mxCell id="noDH1uBnHRJtmfF7jS5f-63" value="&lt;font style=&quot;font-size: 16px;&quot;&gt;领域层(HDFS/HIVE/OLAP)&lt;/font&gt;" style="rounded=0;whiteSpace=wrap;html=1;fontSize=16;strokeWidth=1;verticalAlign=top;" vertex="1" parent="1">
          <mxGeometry x="286" y="1451" width="295" height="90" as="geometry" />
        </mxCell>
        <mxCell id="noDH1uBnHRJtmfF7jS5f-65" value="认证服务" style="rounded=0;whiteSpace=wrap;html=1;fontSize=16;strokeWidth=1;" vertex="1" parent="1">
          <mxGeometry x="304" y="1486" width="120" height="42" as="geometry" />
        </mxCell>
        <mxCell id="noDH1uBnHRJtmfF7jS5f-67" value="&lt;font style=&quot;font-size: 16px;&quot;&gt;基础层&lt;/font&gt;" style="rounded=0;whiteSpace=wrap;html=1;fontSize=16;strokeWidth=1;verticalAlign=top;" vertex="1" parent="1">
          <mxGeometry x="286" y="1552" width="295" height="138" as="geometry" />
        </mxCell>
        <mxCell id="noDH1uBnHRJtmfF7jS5f-70" value="监管服务" style="rounded=0;whiteSpace=wrap;html=1;fontSize=16;strokeWidth=1;" vertex="1" parent="1">
          <mxGeometry x="302" y="1637" width="258" height="42" as="geometry" />
        </mxCell>
        <mxCell id="noDH1uBnHRJtmfF7jS5f-71" value="&lt;font style=&quot;font-size: 18px;&quot;&gt;DSC Plugin&lt;/font&gt;" style="text;html=1;strokeColor=none;fillColor=none;align=center;verticalAlign=middle;whiteSpace=wrap;rounded=0;fontSize=16;" vertex="1" parent="1">
          <mxGeometry x="290" y="1361" width="99" height="30" as="geometry" />
        </mxCell>
        <mxCell id="noDH1uBnHRJtmfF7jS5f-72" value="认证服务" style="rounded=0;whiteSpace=wrap;html=1;fontSize=16;strokeWidth=1;" vertex="1" parent="1">
          <mxGeometry x="440" y="1486" width="120" height="42" as="geometry" />
        </mxCell>
        <mxCell id="noDH1uBnHRJtmfF7jS5f-73" value="本地数据服务" style="rounded=0;whiteSpace=wrap;html=1;fontSize=16;strokeWidth=1;" vertex="1" parent="1">
          <mxGeometry x="303.5" y="1585" width="120" height="42" as="geometry" />
        </mxCell>
        <mxCell id="noDH1uBnHRJtmfF7jS5f-74" value="网络数据服务" style="rounded=0;whiteSpace=wrap;html=1;fontSize=16;strokeWidth=1;" vertex="1" parent="1">
          <mxGeometry x="439.5" y="1585" width="120" height="42" as="geometry" />
        </mxCell>
        <mxCell id="noDH1uBnHRJtmfF7jS5f-81" style="edgeStyle=orthogonalEdgeStyle;rounded=0;orthogonalLoop=1;jettySize=auto;html=1;exitX=0;exitY=0.75;exitDx=0;exitDy=0;entryX=1;entryY=0.75;entryDx=0;entryDy=0;fontSize=16;curved=1;" edge="1" parent="1" source="noDH1uBnHRJtmfF7jS5f-75" target="noDH1uBnHRJtmfF7jS5f-60">
          <mxGeometry relative="1" as="geometry" />
        </mxCell>
        <mxCell id="noDH1uBnHRJtmfF7jS5f-75" value="&lt;font style=&quot;font-size: 18px;&quot;&gt;Auth Service&lt;/font&gt;" style="rounded=0;whiteSpace=wrap;html=1;fontSize=16;strokeWidth=1;verticalAlign=top;" vertex="1" parent="1">
          <mxGeometry x="862" y="1416" width="186" height="226" as="geometry" />
        </mxCell>
        <mxCell id="noDH1uBnHRJtmfF7jS5f-76" value="监控功能" style="rounded=0;whiteSpace=wrap;html=1;fontSize=16;strokeWidth=1;fillColor=#ffe6cc;strokeColor=#d79b00;" vertex="1" parent="1">
          <mxGeometry x="895.5" y="1471" width="120" height="42" as="geometry" />
        </mxCell>
        <mxCell id="noDH1uBnHRJtmfF7jS5f-77" value="管理功能" style="rounded=0;whiteSpace=wrap;html=1;fontSize=16;strokeWidth=1;fillColor=#ffe6cc;strokeColor=#d79b00;" vertex="1" parent="1">
          <mxGeometry x="895.5" y="1527" width="120" height="42" as="geometry" />
        </mxCell>
        <mxCell id="noDH1uBnHRJtmfF7jS5f-78" value="数据下发功能" style="rounded=0;whiteSpace=wrap;html=1;fontSize=16;strokeWidth=1;" vertex="1" parent="1">
          <mxGeometry x="895.5" y="1582" width="120" height="42" as="geometry" />
        </mxCell>
        <mxCell id="noDH1uBnHRJtmfF7jS5f-79" value="&lt;font style=&quot;font-size: 18px;&quot;&gt;HDFS DataNode&lt;/font&gt;" style="rounded=0;whiteSpace=wrap;html=1;fontSize=16;strokeWidth=1;" vertex="1" parent="1">
          <mxGeometry x="858.5" y="1251" width="193" height="82" as="geometry" />
        </mxCell>
        <mxCell id="noDH1uBnHRJtmfF7jS5f-86" value="认证&amp;amp;鉴权" style="text;html=1;strokeColor=none;fillColor=none;align=center;verticalAlign=middle;whiteSpace=wrap;rounded=0;fontSize=16;" vertex="1" parent="1">
          <mxGeometry x="431" y="1311" width="96.5" height="30" as="geometry" />
        </mxCell>
        <mxCell id="noDH1uBnHRJtmfF7jS5f-87" value="&lt;font style=&quot;font-size: 18px;&quot;&gt;&lt;b&gt;HDFS NameNode&lt;/b&gt;&lt;/font&gt;" style="text;html=1;strokeColor=none;fillColor=none;align=center;verticalAlign=middle;whiteSpace=wrap;rounded=0;fontSize=16;" vertex="1" parent="1">
          <mxGeometry x="243" y="1206" width="155.5" height="30" as="geometry" />
        </mxCell>
        <mxCell id="noDH1uBnHRJtmfF7jS5f-89" value="上报内部状态信息" style="text;html=1;strokeColor=none;fillColor=none;align=center;verticalAlign=middle;whiteSpace=wrap;rounded=0;fontSize=18;" vertex="1" parent="1">
          <mxGeometry x="657" y="1409" width="158" height="30" as="geometry" />
        </mxCell>
        <mxCell id="noDH1uBnHRJtmfF7jS5f-90" value="获取权限数据和控制数据" style="text;html=1;strokeColor=none;fillColor=none;align=center;verticalAlign=middle;whiteSpace=wrap;rounded=0;fontSize=18;" vertex="1" parent="1">
          <mxGeometry x="657" y="1625" width="142" height="30" as="geometry" />
        </mxCell>
      </root>
    </mxGraphModel>
  </diagram>
</mxfile>
